<svg version="1.2" xmlns="http://www.w3.org/2000/svg" viewBox="0 0 168 146" width="168" height="146">
	<style>
		.s0 { fill: #00a1e0 } 
		.s1 { fill: #9adff3 } 
		.s2 { fill: #03477f } 
		.s3 { fill: #000000 } 
	</style>
	<path class="s0" d="m149.82 24.07c-22.22 8.74-43.16 18.46-68.34 43.29q-0.13 0.12-0.29 0.22-0.15 0.09-0.32 0.16-0.16 0.07-0.34 0.1-0.18 0.03-0.36 0.03c-39.77 0.6-77.72 5.6-80.17 16.44-2 9.37 22 16.16 28.57 17.82q-0.86-1.91-1.64-3.88c-5.24-1.63-21.64-7.25-19.51-12.42 2.34-5.77 22.4-6.34 30.9-6.28 1.07 0 2.12 0 3.17 0.06h0.26q0.99 0 1.8 0c43 0.1 83.62 16.16 110.74 33.72 4.66-6.57 8.19-13.87 10.44-21.6 2.25-7.73 3.2-15.79 2.79-23.83-0.4-8.05-2.15-15.97-5.16-23.43-3.02-7.47-7.26-14.38-12.56-20.45z"/>
	<path class="s1" d="m136.82 13.18q-2.85-1.97-5.86-3.67-3.02-1.7-6.18-3.1-3.17-1.41-6.45-2.51-3.28-1.11-6.65-1.9-1.77-0.42-3.55-0.76-1.79-0.34-3.59-0.59-1.8-0.25-3.61-0.41-1.8-0.17-3.62-0.24c-34-1.33-65.38 20.93-73.64 54.56q-0.57 2.36-1 4.71 0.02-0.01 0.03-0.02 0.02-0.01 0.04-0.02 0.01-0.01 0.03-0.02 0.02-0.01 0.03-0.02c31.8-24.78 77.52-41.19 114.02-46.01z"/>
	<path class="s2" d="m69.71 99.24q-0.15 0-0.3 0.04-0.14 0.04-0.27 0.11-0.13 0.08-0.24 0.18-0.11 0.1-0.19 0.23-2.58 3.64-5 7.39-2.42 3.75-4.66 7.61-2.24 3.85-4.3 7.81-2.07 3.95-3.95 8 3.38 2.71 7.07 4.98 3.69 2.27 7.64 4.06 3.95 1.8 8.09 3.08 4.13 1.29 8.4 2.05c23.32 4.3 41.07-2.47 55.38-12.07-18.66-14.11-36.41-24.49-67.28-33.42q-0.05-0.01-0.1-0.03-0.04-0.01-0.09-0.01-0.05-0.01-0.1-0.01-0.05 0-0.1 0z"/>
	<path class="s3" d="m293.14 61.69l0.06 31.17h-7.39l-0.06-31.17h-4.2v-4.92h4.2v-5.65c0-5.3 3.16-10.24 10-10.25h4.64v5.58h-3.26c-2.75 0-4.06 1.6-4.05 4.29v6h7.32v4.93z"/>
	<path class="s3" d="m342.79 61.59l0.06 31.17h-7.4l-0.06-31.17h-4.2v-4.91h4.2v-5.68c0-5.3 3.18-10.23 10.06-10.25h4.64v5.58h-3.25c-2.76 0-4.06 1.61-4.06 4.29v6h7.32v4.94z"/>
	<path class="s3" d="m400.94 78.11v14.54h-7.4v-14.54-11.31c0-5.29 3.17-10.22 10.06-10.23h4.64v5.63h-3.24c-2.76 0-4.06 1.6-4.05 4.28 0 0 0 11.63-0.01 11.63z"/>
	<path class="s3" d="m368 93.11c-4.57 0-7.62-1.26-9.87-3.5q-0.73-0.8-1.29-1.72-0.56-0.93-0.94-1.94-0.37-1.02-0.55-2.08-0.17-1.07-0.14-2.15c0-6.15 4.26-10.59 12.67-10.61h9.71v-2.63c0-4.64-2.33-6.88-8.06-6.87-4.06 0-6 1-8 3.57l-4.88-4.56c3.47-4 7.1-5.31 13.19-5.32 10.08 0 15.16 4.25 15.17 12.59v24q-2.11 0.27-4.24 0.48-2.12 0.22-4.24 0.37-2.13 0.15-4.26 0.25-2.13 0.09-4.26 0.13m9.62-6.73v-10.15h-8.63c-4.34 0-6.59 2-6.58 5.3 0.01 3.3 2.2 5.22 6.76 5.21 4.56-0.01 8.47-0.39 8.47-0.39"/>
	<path class="s3" d="m452.76 93c-6 0-11.1-1-15.46-5.26l4.85-4.86c3 3 7 3.82 10.6 3.81 4.49 0 8-1.61 8-5.09 0-2.46-1.37-4.07-4.92-4.34l-5.83-0.51c-6.88-0.58-10.87-3.68-10.89-10.13 0-7.18 6.14-11.26 13.83-11.27 5.51 0 10.22 1.14 13.64 4.11l-4.64 4.72c-2.32-2-5.57-2.66-9.06-2.66-4.42 0-6.66 2-6.66 4.72 0 2.18 1.16 3.84 5.08 4.18l5.8 0.52c6.9 0.55 10.95 3.81 11 10.33-0.1 7.73-6.58 11.73-15.34 11.73z"/>
	<path fill-rule="evenodd" class="s3" d="m500.57 56.34l7.4-0.02 0.07 36.12-7.4 0.02z"/>
	<path class="s3" d="m528.32 92.4c-7 0-10.09-4.69-10.1-10.13l-0.08-41.47h7.39l0.08 41.75c0 2.83 1 4.29 4 4.28h1.43v5.57z"/>
	<path class="s3" d="m223.92 93c-7 0-10.1-4.69-10.11-10.13l-0.08-41.47h7.4l0.08 41.75c0 2.83 1 4.29 4 4.28h14.55v5.57z"/>
	<path class="s3" d="m551.6 92.79c-6 0-11.1-1-15.45-5.26l4.85-4.87c3 3 7 3.83 10.58 3.82 4.5 0 8.06-1.61 8-5.09 0-2.46-1.4-4.07-5-4.35l-5.87-0.48c-6.88-0.58-10.88-3.68-10.89-10.13 0-7.18 6.13-11.26 13.83-11.27 5.5 0 10.21 1.14 13.63 4.11l-4.53 4.73c-2.33-2-5.59-2.67-9.07-2.66-4.42 0-6.66 2-6.65 4.72 0 2.18 1.16 3.83 5.08 4.18l5.8 0.52c6.87 0.55 11 3.81 11 10.33 0 7.68-6.51 11.69-15.27 11.71"/>
	<path class="s3" d="m650.2 75.93c0 6.3 3.35 10.28 9.36 10.27 4.15 0 6.31-1.18 8.93-3.79l4.71 4.41c-3.76 3.78-7.31 5.75-13.77 5.76-9.2 0-16.53-4.83-16.55-18.82-0.03-11.89 6.12-18.76 15.55-18.76 9.85 0 15.58 7.22 15.6 17.66v3.27zm15.5-10.19q-0.45-1.06-1.19-1.94-0.75-0.88-1.72-1.5-0.97-0.62-2.09-0.92-1.11-0.3-2.26-0.26-1.16-0.04-2.28 0.27-1.12 0.3-2.1 0.92-0.98 0.63-1.74 1.51-0.75 0.88-1.21 1.95-0.25 0.59-0.43 1.21-0.18 0.61-0.3 1.24-0.12 0.63-0.16 1.27-0.05 0.64-0.03 1.28h16.53q0.02-0.64-0.04-1.28-0.05-0.65-0.18-1.28-0.13-0.63-0.32-1.24-0.2-0.61-0.46-1.2"/>
	<path class="s3" d="m322.88 87.22c-3 0-4-1.45-4-4.28v-21.3h7.12v-4.95h-7.12v-9.71h-7.4v9.7h-4.19v4.94h4.19v21c0 5.44 3.07 10.15 10.1 10.13h4.56v-5.53z"/>
	<path class="s3" d="m428.93 87c-3 0-4-1.45-4-4.28v-21.31h7.07v-4.93h-7.13v-9.7h-7.4v9.71h-4.17v4.93h4.17v21c0 5.44 3.07 10.15 10.1 10.14h4.57v-5.56z"/>
	<path class="s3" d="m488.7 86.9c-3 0-4-1.45-4-4.28v-21.31h7.14v-4.95h-7.14v-9.71h-7.38v9.7h-4.18v4.94h4.18l0.05 21c0 5.44 3.06 10.14 10.08 10.13h4.55v-5.53z"/>
	<path class="s3" d="m694.71 86.5c-3 0-4-1.45-4-4.28v-21.67h7.12v-4.55h-7.12v-9.71h-7.39v9.7h-4.22v4.57h4.17l0.06 21.44c0 5.43 3.06 10.14 10.09 10.13h4.58v-5.64z"/>
	<path class="s3" d="m259.84 93.31c-12.46 0-15-7.61-15-12.71v-23.75h7.75c0 0-0.05 18.82 0 22 0.05 3.18 0.62 8.5 7.32 8.49 6.7-0.01 7.29-5.32 7.28-8.52-0.01-3.2-0.12-22-0.12-22h7.75v23.75c0 5.11-2.48 12.75-14.94 12.77"/>
	<path class="s3" d="m622.77 55c12.46 0 15 7.62 15 12.73v24.45h-7.67v-22.71c0-3.2-0.57-8.51-7.28-8.5-6.71 0.01-7.25 5.33-7.24 8.52v22.72h-7.71v-24.45c0-5.11 2.49-12.77 14.95-12.79"/>
	<path class="s3" d="m587.2 98.15q-0.2 0.63-0.46 1.23-0.27 0.6-0.6 1.17-0.34 0.57-0.73 1.1-0.4 0.52-0.85 1-0.75 0.69-1.61 1.21-0.87 0.52-1.82 0.86-0.96 0.34-1.96 0.49-1 0.14-2.01 0.08h-2.92v-6.55h1.86c3.06 0 4.12-0.93 5.19-3.86l1.62-4.33-12.69-34.39h7.69l8.68 25.42 8.34-25.45h7.77z"/>
	<path class="s3" d="m508.59 44.75c-0.01-1.75-1.07-3.33-2.69-4-1.63-0.66-3.49-0.28-4.73 0.96-1.23 1.24-1.6 3.11-0.93 4.73 0.68 1.61 2.26 2.67 4.01 2.67q0.87 0 1.67-0.33 0.79-0.34 1.41-0.95 0.61-0.61 0.94-1.41 0.32-0.8 0.32-1.67z"/>
</svg>