<svg version="1.2" xmlns="http://www.w3.org/2000/svg" viewBox="0 0 66 47" width="66" height="47">
	<style>
		.s0 { fill: #ffd520 } 
		.s1 { fill: #46515a } 
		.s2 { fill: #ed1c2e } 
		.s3 { fill: #ffffff } 
	</style>
	<path class="s0" d="m43.09 19.01l1.74-7.25c-0.03-0.55-0.21-1.07-0.52-1.49-1.34-1.74-4.08-1.04-5.85-0.52-1.12-0.98-2.8-0.64-4.08-0.31-0.15 0.04-0.3 0-0.37-0.12-0.06-0.12 0.04-0.24 0.1-0.3 0.42-0.31 0.67-0.82 0.67-1.37 0-0.8-0.52-1.47-1.25-1.65v-1.58h1.09v-0.92h-1.09v-1.03h-0.92v1.03h-1.06v0.92h1.06v1.58c-0.73 0.22-1.25 0.85-1.25 1.65 0 0.58 0.28 1.06 0.7 1.37 0.07 0.03 0.1 0.18 0.07 0.27-0.07 0.12-0.19 0.19-0.34 0.12-1.28-0.33-2.99-0.64-4.14 0.31-1.77-0.49-4.51-1.22-5.85 0.52-0.31 0.42-0.49 0.94-0.52 1.49l1.74 7.25h20.07zm-3.53-8.16c0.06 0 0.12-0.03 0.12-0.03 1.16-0.19 2.59-0.4 3.57 0.24q-0.37 0.12-0.55 0.52c-0.03 0.06-0.03 0.15-0.03 0.21q-0.02 0.18 0.06 0.37-0.36-0.06-0.67 0.12c-0.37 0.24-0.55 0.88-0.46 1.58q0.18 0.68 0.64 0.86c0.31 0.09 0.61-0.07 0.85-0.19-0.12 0.4-0.54 0.76-0.94 0.92-0.58 0.18-1.31 0.15-1.77-0.1-0.18-0.09-0.7-0.39-0.76-0.88 0.28 0.18 0.64 0.28 0.98 0.12 0.21-0.12 0.42-0.36 0.51-0.7 0.13-0.67 0-1.28-0.33-1.64-0.25-0.22-0.52-0.22-0.76-0.16 0.06-0.12 0.09-0.21 0.09-0.36q0-0.08 0-0.15c-0.06-0.34-0.28-0.58-0.55-0.64zm-4.51 3.84c0.58-0.31 0.61-1.16 0.49-1.71-0.06-0.34-0.25-0.58-0.4-0.67-0.21-0.15-0.49-0.12-0.67-0.09q0.09-0.19 0.09-0.43c0-0.15-0.03-0.3-0.15-0.42-0.09-0.1-0.18-0.22-0.33-0.28q0.09-0.17 0.33-0.3c0.4-0.16 0.91-0.25 1.43-0.25 0.52 0 1.04 0.09 1.43 0.25 0.16 0.06 0.28 0.18 0.34 0.3q-0.21 0.09-0.34 0.28-0.14 0.19-0.15 0.42 0 0.21 0.09 0.43c-0.21-0.03-0.45-0.06-0.67 0.09-0.15 0.12-0.33 0.33-0.39 0.67-0.09 0.58-0.06 1.4 0.49 1.71 0.36 0.18 0.73 0.03 1-0.13-0.03 0.25-0.27 0.58-0.46 0.7q-0.64 0.37-1.37 0.37c-0.45 0-0.94-0.12-1.37-0.37-0.18-0.12-0.43-0.45-0.46-0.7 0.34 0.13 0.71 0.31 1.07 0.13zm-5.06-1.74c-0.06-0.34-0.24-0.58-0.39-0.67-0.22-0.15-0.49-0.12-0.67-0.09q0.09-0.19 0.09-0.43c0-0.15-0.03-0.3-0.15-0.43-0.1-0.09-0.19-0.21-0.34-0.27q0.1-0.17 0.34-0.3c0.39-0.16 0.91-0.25 1.43-0.25 0.52 0 1.03 0.09 1.43 0.25 0.15 0.06 0.27 0.18 0.33 0.3q-0.21 0.09-0.33 0.27-0.14 0.2-0.15 0.43 0 0.21 0.09 0.43c-0.21-0.03-0.46-0.06-0.67 0.09-0.15 0.12-0.34 0.33-0.4 0.67-0.09 0.58-0.09 1.4 0.49 1.71 0.37 0.18 0.73 0.03 1.01-0.13-0.04 0.25-0.28 0.58-0.46 0.7q-0.64 0.37-1.37 0.37c-0.46 0-0.95-0.12-1.37-0.37-0.19-0.12-0.43-0.45-0.46-0.7 0.3 0.16 0.64 0.31 1 0.13 0.61-0.31 0.64-1.13 0.55-1.71zm-5.91-0.64c-0.21-0.12-0.42-0.18-0.67-0.12q0.08-0.19 0.06-0.37c0-0.06 0-0.15-0.03-0.21-0.09-0.28-0.3-0.43-0.55-0.52 1.01-0.61 2.41-0.4 3.57-0.24 0 0 0.06 0 0.12 0.03v0.15c-0.27 0.06-0.49 0.3-0.55 0.64q0 0.08 0 0.15c0 0.15 0.03 0.25 0.09 0.37-0.24-0.06-0.51-0.09-0.76 0.15-0.33 0.37-0.49 0.98-0.33 1.65 0.09 0.3 0.27 0.57 0.51 0.7 0.34 0.15 0.71 0.06 0.98-0.13-0.06 0.49-0.58 0.8-0.76 0.89-0.46 0.24-1.19 0.27-1.77 0.09-0.36-0.12-0.82-0.52-0.94-0.91 0.24 0.12 0.54 0.27 0.85 0.18q0.46-0.18 0.64-0.86c0.09-0.76-0.09-1.37-0.46-1.64zm19.65 10.05c-0.09-0.18-0.33-0.39-0.64-0.39h-20.04c-0.31 0-0.55 0.24-0.64 0.39-0.13 0.37 0 0.74 0.18 1.07l9.17 16.64c0.3 0.45 0.7 1.24 1.28 1.24 0.58 0 0.97-0.79 1.28-1.24l9.17-16.64c0.24-0.3 0.37-0.67 0.24-1.07zm-5.66 4.6l-3.93 7.1c-0.13 0.22-0.43 0.73-1.07 0.73-0.67 0-0.94-0.51-1.07-0.76l-3.93-7.1c-0.21-0.33-0.27-0.7-0.15-1.03l0.03-0.09 0.03-0.06c0.15-0.25 0.46-0.55 0.89-0.55h8.4c0.46 0 0.83 0.33 0.95 0.61v0.03 0.03q0.17 0.59-0.15 1.09zm-10.73 10.39c0.92 1.31 0.34 2.41-1.19 2.35-1.92-0.06-1.64-1.95-1.67-2.41 0 0-0.58-0.85-1.13-1.67 0 0-4.33 0-7.16 0-2.83 0-1.89-1.77-1.4-2.93 0.24-0.61-0.15-1.7-1.95-1.7h-5.24c-0.43 0-0.7-0.34-0.7-0.34l-1.49-1.67h9.47c0.37 0 0.4-0.71-0.03-0.71 0 0-8.41 0-10.08 0l-1.56-1.73h12.89c0.37-0.03 0.49-0.64 0-0.7 0 0-10.88 0-13.53 0l-1.37-1.56c-0.18-0.21-0.12-0.39 0.15-0.39h17.31c0.33 0.03 0.4 0.09 0.64 0.55 0.27 0.45 0.91 1.58 1.07 1.92 0.18 0.36 0.27 0.63-0.1 1.24-0.36 0.61-1.82 3.17-2.1 3.63-0.27 0.43-0.61 1.43 0.52 1.43h5.3c0.49 0 0.67 0.09 0.88 0.49 0.34 0.43 2.47 4.2 2.47 4.2zm37.54-13.04l-1.37 1.56c-2.62 0-13.53 0-13.53 0-0.49 0.06-0.37 0.64 0 0.7h12.89l-1.56 1.74c-1.67 0-10.08 0-10.08 0-0.43 0-0.37 0.7-0.03 0.7h9.47l-1.49 1.67c0 0-0.27 0.34-0.7 0.34h-5.24c-1.77 0-2.19 1.06-1.95 1.7 0.49 1.16 1.43 2.93-1.4 2.93-2.83 0-7.16 0-7.16 0-0.58 0.82-1.13 1.67-1.13 1.67-0.03 0.46 0.25 2.32-1.67 2.41-1.53 0.06-2.11-1.04-1.19-2.35 0 0 2.13-3.77 2.34-4.17 0.22-0.4 0.4-0.49 0.89-0.49h5.3c1.13 0 0.79-1 0.52-1.43-0.28-0.43-1.74-2.98-2.11-3.62-0.36-0.61-0.27-0.89-0.09-1.25 0.19-0.37 0.83-1.5 1.07-1.92 0.27-0.43 0.3-0.52 0.64-0.55h17.3c0.4 0 0.46 0.18 0.28 0.36z"/>
	<path class="s1" d="m65.61 23.73c-0.15-0.33-0.49-0.54-0.91-0.54h-8.41v-23.19h-46.41v23.22h-8.47c-0.42 0-0.76 0.21-0.91 0.54q-0.08 0.19-0.06 0.37 0 0.37 0.27 0.7l5.64 6.37c0.12 0.15 0.55 0.58 1.25 0.58h2.28v14.68h46.44v-14.68h2.22c0.67 0 1.13-0.46 1.25-0.58l5.64-6.37q0.27-0.33 0.27-0.7 0-0.22-0.09-0.4zm-10.02 21.94h-44.97v-13.95h2.22c0.85 0 1.13 0.24 1.19 0.39q0.1 0.24-0.03 0.52c-0.25 0.52-0.52 1.19-0.52 1.83 0 0.33 0.06 0.64 0.27 0.94q0.59 0.92 2.41 0.92c0 0 6.09 0 6.8 0 0.24 0.36 0.63 0.97 0.79 1.19v0.03q0 2.75 2.37 2.86c1.01 0.03 1.77-0.34 2.17-1.01 0.39-0.7 0.27-1.61-0.34-2.46l-2.31-4.09c-0.37-0.73-0.89-0.88-1.53-0.88h-5.36c0.03-0.09 0.06-0.21 0.15-0.33l1.37-2.38 0.74-1.25c0.24-0.43 0.33-0.76 0.33-1.07 0-0.33-0.12-0.61-0.24-0.85-0.19-0.4-0.86-1.55-1.1-1.98v-0.03c-0.31-0.52-0.61-0.85-1.19-0.88h-8.19v-22.46h44.97v22.49h-8.23c-0.58 0.03-0.88 0.36-1.19 0.88v0.03c-0.24 0.43-0.91 1.58-1.1 1.98-0.12 0.28-0.24 0.52-0.24 0.85 0 0.31 0.09 0.64 0.34 1.07l0.73 1.25 1.37 2.38q0.1 0.19 0.15 0.33h-5.36c-0.64 0-1.16 0.15-1.53 0.88l-2.31 4.09c-0.61 0.88-0.73 1.76-0.34 2.47 0.37 0.67 1.16 1.03 2.17 1q2.37-0.08 2.37-2.86v-0.03c0.16-0.22 0.55-0.83 0.8-1.19 0.7 0 6.79 0 6.79 0q1.82 0 2.41-0.92 0.27-0.45 0.27-0.94c0-0.64-0.27-1.31-0.52-1.83q-0.13-0.28-0.03-0.52c0.09-0.15 0.34-0.39 1.19-0.39h2.26zm-11.95-25.99l1.92-7.86c0.03-0.64-0.24-1.37-0.61-1.92-1.61-2.1-4.57-1.37-6.33-0.89-0.74-0.48-1.68-0.7-2.78-0.54 0 0-0.3 0.06-0.55 0.09q0.19-0.43 0.19-0.95c0-0.94-0.55-1.76-1.37-2.13v-0.55c0.18 0 1.06 0 1.06 0v-1.95c0 0-0.88 0-1.06 0 0-0.18 0-1.06 0-1.06h-2.01c0 0 0 0.88 0 1.06-0.19 0-1.1 0-1.1 0v1.98c0 0 0.88 0 1.1 0v0.55c-0.8 0.37-1.38 1.19-1.38 2.13q0 0.5 0.19 0.95c-0.09-0.03-0.43-0.06-0.55-0.09-1.07-0.19-2.01 0.03-2.77 0.55-1.77-0.49-4.7-1.22-6.34 0.88-0.4 0.52-0.64 1.28-0.61 1.92l1.92 7.86h21.08zm-21.81-9.42c1.34-1.73 4.08-1.03 5.85-0.51 1.12-0.98 2.86-0.64 4.14-0.31q0.24 0.06 0.34-0.12c0.03-0.09 0-0.24-0.06-0.27-0.43-0.31-0.71-0.83-0.71-1.38 0-0.79 0.52-1.43 1.25-1.64v-1.59h-1.06v-0.91h1.06v-1.07h0.92v1.04h1.09v0.91h-1.09v1.59c0.73 0.21 1.25 0.85 1.25 1.64 0 0.55-0.28 1.07-0.67 1.38-0.06 0.03-0.13 0.18-0.09 0.3 0.06 0.12 0.21 0.15 0.36 0.12 1.28-0.3 2.96-0.64 4.08 0.31 1.77-0.49 4.51-1.22 5.85 0.51 0.31 0.43 0.49 0.95 0.52 1.5l-1.74 7.25h-20.04l-1.74-7.25c0-0.55 0.18-1.07 0.49-1.5zm22.6 11.89v-0.03l-0.03-0.03c-0.18-0.4-0.67-0.83-1.31-0.83h-20.04c-0.61 0-1.1 0.43-1.28 0.83l-0.03 0.06-0.03 0.06c-0.13 0.36-0.19 0.94 0.24 1.64l9.41 17.03c0.28 0.46 0.7 1.22 1.65 1.22h0.03 0.03c0.94-0.03 1.4-0.79 1.68-1.25l9.44-17.09c0.4-0.67 0.37-1.25 0.24-1.61zm-0.88 1.28l-9.17 16.63c-0.3 0.46-0.7 1.25-1.28 1.25-0.58 0-1-0.79-1.28-1.25l-9.17-16.63c-0.18-0.31-0.33-0.67-0.18-1.07 0.09-0.18 0.33-0.4 0.64-0.4h20.05c0.3 0 0.57 0.25 0.63 0.4 0.07 0.4-0.06 0.76-0.24 1.07zm-5.33 2.43v-0.03c-0.12-0.3-0.49-0.61-0.95-0.61h-8.4c-0.43 0-0.77 0.31-0.89 0.55l-0.03 0.06-0.03 0.09c-0.09 0.34-0.03 0.71 0.15 1.04l3.93 7.1c0.13 0.21 0.43 0.76 1.07 0.76 0.67 0 0.94-0.52 1.07-0.73l3.93-7.1q0.32-0.51 0.18-1.07zm-0.76 0.71l-3.84 6.97c-0.12 0.19-0.27 0.52-0.55 0.52-0.27 0-0.43-0.33-0.55-0.52l-3.87-6.97q-0.13-0.19-0.09-0.43c0.03-0.06 0.15-0.18 0.28-0.18h8.4c0.13 0 0.25 0.12 0.28 0.18q0.08 0.19-0.06 0.43zm-3.54-14.93c0.13 0.27 0 0.48-0.15 0.73-0.12 0.18-0.33 0.39-0.24 0.58 0.03 0.09 0.12 0.15 0.18 0.15 0.15 0.03 0.31-0.09 0.46-0.21 0.09-0.07 0.18-0.16 0.27-0.19 0.18-0.06 0.37 0 0.46 0.15 0.15 0.28 0.18 0.77 0.06 1.07-0.18 0.34-0.46 0.21-0.79 0.03-0.15-0.09-0.28-0.18-0.43-0.18-0.21 0-0.3 0.36-0.3 0.55-0.03 0.67 0.42 1.28 1.09 1.58 0.4 0.18 0.89 0.28 1.37 0.25 0.49 0 0.98-0.1 1.38-0.25 0.67-0.3 1.12-0.94 1.09-1.58 0-0.19-0.09-0.55-0.3-0.55-0.15 0-0.28 0.09-0.43 0.18-0.33 0.18-0.61 0.31-0.79-0.03-0.12-0.27-0.09-0.79 0.06-1.07 0.09-0.15 0.3-0.21 0.46-0.15q0.13 0.05 0.27 0.19c0.15 0.12 0.31 0.24 0.46 0.21 0.06 0 0.15-0.06 0.18-0.15 0.06-0.19-0.15-0.4-0.24-0.58-0.16-0.25-0.28-0.49-0.16-0.73q0.14-0.2 0.46-0.22h0.09c-0.09-0.48-0.24-1.09-1.25-1.34-0.27-0.06-0.67-0.15-1.25-0.15-0.54 0-0.97 0.09-1.24 0.15-1.01 0.25-1.16 0.86-1.25 1.34h0.09c0.12 0 0.27 0.09 0.39 0.22zm-26.32 19.37c-0.43 0-0.7-0.33-0.7-0.33l-1.49-1.68h9.47c0.37 0 0.4-0.7-0.03-0.7 0 0-8.41 0-10.08 0l-1.56-1.73h12.89c0.37-0.04 0.49-0.64 0-0.71 0 0-10.88 0-13.53 0l-1.37-1.55c-0.18-0.21-0.12-0.4 0.15-0.4h17.31c0.33 0.04 0.4 0.1 0.64 0.55 0.27 0.46 0.91 1.59 1.07 1.92 0.18 0.37 0.27 0.64-0.1 1.25-0.36 0.61-1.82 3.17-2.1 3.63-0.27 0.42-0.61 1.43 0.52 1.43h5.3c0.49 0 0.67 0.09 0.88 0.49 0.22 0.39 2.35 4.17 2.35 4.17 0.92 1.31 0.34 2.41-1.19 2.35-1.92-0.06-1.64-1.95-1.67-2.41 0 0-0.58-0.85-1.13-1.68 0 0-4.33 0-7.16 0-2.83 0-1.89-1.76-1.4-2.92 0.24-0.61-0.15-1.71-1.95-1.71h-5.12zm26.81-20.23c0.4-0.15 0.92-0.24 1.43-0.24 0.52 0 1.04 0.09 1.44 0.24 0.15 0.06 0.27 0.19 0.33 0.31q-0.21 0.09-0.33 0.27-0.15 0.19-0.16 0.43 0 0.21 0.09 0.42c-0.21-0.03-0.45-0.06-0.67 0.1-0.15 0.12-0.33 0.33-0.39 0.67-0.09 0.58-0.06 1.4 0.49 1.7 0.36 0.19 0.73 0.03 1-0.12-0.03 0.24-0.27 0.58-0.46 0.7q-0.64 0.37-1.37 0.37c-0.45 0-0.94-0.12-1.37-0.37-0.18-0.12-0.42-0.46-0.46-0.7 0.31 0.15 0.64 0.31 1.01 0.12 0.58-0.3 0.61-1.16 0.49-1.7-0.06-0.34-0.25-0.58-0.4-0.67-0.21-0.16-0.49-0.13-0.67-0.1q0.09-0.19 0.09-0.42c0-0.15-0.03-0.31-0.15-0.43-0.09-0.09-0.18-0.21-0.33-0.27 0.12-0.12 0.24-0.25 0.39-0.31zm30.47 13.53l-1.37 1.55c-2.62 0-13.53 0-13.53 0-0.49 0.07-0.37 0.64 0 0.7h12.89l-1.56 1.74c-1.67 0-10.08 0-10.08 0-0.43 0-0.37 0.7-0.03 0.7h9.47l-1.49 1.68c0 0-0.27 0.33-0.7 0.33h-5.24c-1.77 0-2.19 1.07-1.95 1.71 0.49 1.16 1.43 2.92-1.4 2.92-2.83 0-7.16 0-7.16 0-0.58 0.83-1.13 1.68-1.13 1.68-0.03 0.46 0.25 2.32-1.67 2.41-1.53 0.06-2.11-1.04-1.19-2.35 0 0 2.13-3.78 2.34-4.17 0.22-0.4 0.4-0.49 0.89-0.49h5.3c1.13 0 0.79-1.01 0.52-1.43-0.28-0.43-1.74-2.99-2.11-3.63-0.36-0.61-0.27-0.88-0.09-1.25 0.19-0.36 0.83-1.49 1.07-1.92 0.27-0.42 0.3-0.51 0.64-0.55h17.3c0.4 0 0.46 0.19 0.28 0.37zm-36.53-12.67c0.12 0.27 0 0.48-0.15 0.73-0.13 0.18-0.34 0.39-0.25 0.58 0.03 0.09 0.12 0.15 0.19 0.15 0.15 0.03 0.3-0.09 0.45-0.22 0.09-0.06 0.18-0.15 0.28-0.18 0.18-0.06 0.36 0 0.45 0.15 0.16 0.28 0.19 0.77 0.06 1.07-0.18 0.34-0.45 0.21-0.79 0.03-0.15-0.09-0.27-0.18-0.42-0.18-0.22 0-0.31 0.36-0.31 0.55-0.03 0.67 0.43 1.28 1.1 1.58 0.39 0.18 0.88 0.28 1.37 0.24 0.49 0 0.97-0.09 1.37-0.24 0.67-0.3 1.13-0.94 1.1-1.58 0-0.19-0.09-0.55-0.31-0.55-0.15 0-0.27 0.09-0.42 0.18-0.34 0.18-0.61 0.31-0.8-0.03-0.12-0.27-0.09-0.79 0.06-1.07 0.1-0.15 0.31-0.21 0.46-0.15q0.14 0.05 0.28 0.18c0.15 0.13 0.3 0.25 0.45 0.22 0.06 0 0.15-0.06 0.19-0.15 0.06-0.19-0.16-0.4-0.25-0.58-0.15-0.25-0.27-0.49-0.15-0.73q0.14-0.2 0.46-0.22h0.09c-0.09-0.49-0.25-1.09-1.25-1.34-0.28-0.06-0.67-0.15-1.25-0.15-0.55 0-0.98 0.09-1.25 0.15-1.01 0.25-1.16 0.85-1.25 1.34h0.09c0.12 0 0.31 0.09 0.4 0.22zm0.52-0.86c0.39-0.15 0.91-0.24 1.43-0.24 0.52 0 1.03 0.09 1.43 0.24 0.15 0.06 0.27 0.19 0.34 0.31q-0.22 0.09-0.34 0.27-0.14 0.19-0.15 0.43 0 0.21 0.09 0.42c-0.21-0.03-0.46-0.06-0.67 0.1-0.15 0.12-0.34 0.33-0.4 0.67-0.09 0.58-0.09 1.4 0.49 1.7 0.37 0.19 0.73 0.03 1.01-0.12-0.03 0.24-0.28 0.58-0.46 0.7q-0.64 0.37-1.37 0.37c-0.46 0-0.95-0.12-1.37-0.37-0.19-0.12-0.43-0.46-0.46-0.7 0.3 0.15 0.64 0.31 1.01 0.12 0.57-0.3 0.6-1.16 0.48-1.7-0.06-0.34-0.24-0.58-0.39-0.67-0.22-0.16-0.49-0.13-0.67-0.1q0.09-0.19 0.09-0.42c0-0.15-0.03-0.31-0.15-0.43-0.1-0.09-0.19-0.21-0.34-0.27 0.12-0.12 0.24-0.25 0.4-0.31zm-2.17 4.69c0.37-0.42 0.52-0.97 0.4-1.46-0.09-0.33-0.49-0.18-0.7-0.03-0.18 0.09-0.34 0.21-0.52 0.15-0.12-0.03-0.21-0.18-0.24-0.27-0.13-0.37-0.06-0.82 0.12-1.1 0.06-0.09 0.18-0.09 0.3-0.09 0.16 0 0.31 0.12 0.43 0.21 0.18 0.16 0.46 0.31 0.61 0.13 0.15-0.19-0.03-0.43-0.18-0.61-0.13-0.19-0.25-0.34-0.25-0.55q0-0.23 0.19-0.37c0.12-0.12 0.3-0.12 0.3-0.12h0.06v-0.06q0.01-0.36 0.15-0.85c-1-0.34-2.04-0.46-3.26-0.4-1.12 0.12-1.86 0.58-2.13 1.28 0 0 0.37 0.03 0.55 0.12 0.09 0.06 0.36 0.22 0.33 0.52q-0.06 0.23-0.21 0.46c-0.09 0.18-0.3 0.42-0.21 0.58 0.15 0.27 0.42 0.06 0.61-0.09q0.19-0.14 0.33-0.19c0.09-0.03 0.31-0.03 0.43 0.12 0.18 0.25 0.24 0.89 0.03 1.22-0.21 0.19-0.4 0.06-0.64-0.06-0.18-0.06-0.31-0.15-0.49-0.18-0.09-0.03-0.27 0-0.27 0.27 0.03 0.8 0.36 1.47 1.09 1.77 0.95 0.49 2.35 0.43 3.17-0.4zm-3.65-0.91c0.24 0.12 0.55 0.27 0.85 0.18q0.46-0.17 0.64-0.85c0.09-0.7-0.09-1.31-0.46-1.58-0.21-0.13-0.42-0.19-0.67-0.13q0.08-0.18 0.06-0.36c0-0.06 0-0.15-0.03-0.21-0.09-0.28-0.3-0.43-0.55-0.52 1.01-0.61 2.41-0.4 3.57-0.25 0 0 0.06 0 0.12 0.03v0.16c-0.27 0.06-0.49 0.3-0.55 0.64q0 0.07 0 0.15c0 0.15 0.03 0.24 0.09 0.36-0.24-0.06-0.51-0.09-0.76 0.16-0.33 0.36-0.49 0.97-0.33 1.64 0.09 0.31 0.27 0.58 0.52 0.7 0.33 0.15 0.7 0.06 0.97-0.12-0.06 0.49-0.58 0.79-0.76 0.88-0.46 0.25-1.19 0.28-1.77 0.1-0.39-0.19-0.82-0.58-0.94-0.98zm15.93-3.2h0.06c0 0 0.19 0 0.31 0.12 0.12 0.09 0.15 0.22 0.18 0.37 0.03 0.21-0.12 0.36-0.24 0.55-0.13 0.18-0.34 0.42-0.19 0.61 0.19 0.21 0.43 0.03 0.61-0.13 0.12-0.09 0.28-0.21 0.43-0.21 0.09 0 0.24 0 0.3 0.09 0.19 0.28 0.22 0.73 0.13 1.1-0.03 0.06-0.13 0.24-0.25 0.27-0.18 0.06-0.33-0.06-0.52-0.15-0.21-0.12-0.64-0.27-0.7 0.03-0.12 0.49 0.03 1.04 0.4 1.46 0.79 0.83 2.19 0.89 3.17 0.46 0.73-0.33 1.06-0.97 1.1-1.77 0-0.27-0.19-0.3-0.28-0.27-0.18 0.03-0.3 0.12-0.49 0.18-0.24 0.09-0.42 0.25-0.64 0.06-0.21-0.33-0.15-0.97 0.03-1.21 0.1-0.16 0.31-0.16 0.43-0.13 0.09 0.03 0.21 0.13 0.34 0.19 0.18 0.15 0.45 0.33 0.61 0.09 0.09-0.15-0.1-0.4-0.22-0.58q-0.15-0.23-0.21-0.46c-0.03-0.3 0.24-0.46 0.33-0.52 0.19-0.09 0.55-0.12 0.55-0.12q-0.4-1.09-2.13-1.28c-1.19-0.09-2.22 0.06-3.26 0.4q0.14 0.49 0.15 0.85zm0.58-0.52c0.06 0 0.12-0.03 0.12-0.03 1.16-0.18 2.59-0.39 3.57 0.25q-0.37 0.12-0.55 0.51c-0.03 0.07-0.03 0.16-0.03 0.22q-0.02 0.18 0.06 0.36-0.36-0.05-0.67 0.13c-0.37 0.24-0.55 0.88-0.46 1.58q0.18 0.68 0.64 0.85c0.31 0.09 0.61-0.06 0.85-0.18-0.12 0.4-0.54 0.76-0.94 0.91-0.58 0.19-1.31 0.16-1.77-0.09-0.18-0.09-0.7-0.39-0.76-0.88 0.28 0.18 0.64 0.27 0.98 0.12 0.21-0.12 0.42-0.36 0.51-0.7 0.13-0.67 0-1.28-0.33-1.64-0.24-0.22-0.52-0.22-0.76-0.16 0.06-0.12 0.09-0.21 0.09-0.36q0-0.08 0-0.16c-0.06-0.33-0.28-0.57-0.55-0.64z"/>
	<path class="s2" d="m45.04 26.08c-0.12 0.27-0.24 0.52-0.24 0.85 0 0.31 0.09 0.64 0.33 1.07l0.74 1.25 1.37 2.38q0.1 0.19 0.15 0.33h-5.36c-0.64 0-1.16 0.15-1.53 0.88l-2.31 4.09c-0.61 0.88-0.73 1.76-0.34 2.46 0.37 0.67 1.16 1.04 2.17 1.01q2.37-0.08 2.37-2.86v-0.03c0.15-0.22 0.55-0.83 0.79-1.19 0.71 0 6.8 0 6.8 0q1.82 0 2.41-0.92 0.27-0.45 0.27-0.94c0-0.64-0.27-1.31-0.52-1.83q-0.13-0.28-0.03-0.52c0.09-0.15 0.34-0.39 1.19-0.39h2.25v13.95h-44.94v-13.95h2.23c0.85 0 1.13 0.24 1.19 0.39q0.1 0.24-0.03 0.52c-0.25 0.52-0.52 1.19-0.52 1.83 0 0.33 0.06 0.64 0.27 0.94q0.59 0.92 2.41 0.92c0 0 6.09 0 6.79 0 0.25 0.36 0.64 0.97 0.8 1.19v0.03q0 2.75 2.37 2.86c1.01 0.03 1.77-0.34 2.17-1.01 0.39-0.7 0.27-1.61-0.34-2.46l-2.32-4.09c-0.36-0.73-0.88-0.88-1.52-0.88h-5.36c0.03-0.09 0.06-0.21 0.15-0.33l1.37-2.38 0.73-1.25c0.25-0.43 0.34-0.76 0.34-1.07 0-0.33-0.12-0.61-0.24-0.85-0.19-0.4-0.86-1.55-1.1-1.98v-0.03c-0.31-0.52-0.61-0.85-1.19-0.88h-8.2v-22.46h44.97v22.49h-8.22c-0.58 0.03-0.89 0.36-1.19 0.88v0.03c-0.27 0.4-0.94 1.55-1.13 1.95zm-0.61-3.93v-0.03l-0.03-0.03c-0.18-0.4-0.67-0.82-1.31-0.82h-20.04c-0.61 0-1.1 0.42-1.28 0.82l-0.04 0.06-0.03 0.06c-0.12 0.37-0.18 0.95 0.25 1.65l9.41 17.03c0.28 0.45 0.7 1.22 1.65 1.22h0.03 0.03c0.94-0.03 1.4-0.8 1.67-1.25l9.45-17.1c0.4-0.67 0.37-1.24 0.24-1.61zm-6.88 3.96c0.06 0.15 0 0.31-0.09 0.43l-3.84 6.97c-0.12 0.19-0.28 0.52-0.55 0.52-0.28 0-0.43-0.33-0.55-0.52l-3.87-6.97q-0.14-0.19-0.09-0.43c0.03-0.06 0.15-0.18 0.27-0.18h8.41c0.16 0 0.28 0.12 0.31 0.18zm7.98-14.26c0.03-0.64-0.24-1.37-0.61-1.92-1.61-2.1-4.57-1.37-6.34-0.88-0.73-0.49-1.67-0.7-2.77-0.55 0 0-0.3 0.06-0.55 0.09q0.19-0.42 0.19-0.94c0-0.95-0.55-1.77-1.38-2.14v-0.54c0.19 0 1.07 0 1.07 0v-1.98c0 0-0.88 0-1.07 0 0-0.19 0-1.07 0-1.07h-2.01c0 0 0 0.88 0 1.07-0.18 0-1.09 0-1.09 0v1.98c0 0 0.88 0 1.09 0v0.54c-0.79 0.37-1.37 1.19-1.37 2.14q0 0.49 0.19 0.94c-0.1-0.03-0.43-0.06-0.55-0.09-1.07-0.18-2.01 0.03-2.78 0.55-1.76-0.49-4.69-1.22-6.33 0.88-0.4 0.52-0.64 1.28-0.61 1.92l1.92 7.86h21.08zm-22.64-0.79q0.37 0.12 0.55 0.52c0.03 0.06 0.03 0.15 0.03 0.21q0.02 0.18-0.06 0.37 0.36-0.06 0.67 0.12c0.37 0.24 0.55 0.88 0.46 1.58q-0.18 0.68-0.64 0.86c-0.31 0.09-0.61-0.06-0.85-0.19 0.12 0.4 0.54 0.77 0.94 0.92 0.58 0.18 1.31 0.15 1.77-0.09 0.18-0.1 0.7-0.4 0.76-0.89-0.28 0.19-0.64 0.28-0.98 0.12-0.21-0.12-0.42-0.36-0.51-0.7-0.13-0.67 0-1.28 0.33-1.64 0.25-0.21 0.52-0.21 0.76-0.15-0.06-0.13-0.09-0.22-0.09-0.37q0-0.08 0-0.15c0.06-0.34 0.28-0.58 0.55-0.64v-0.15c-0.06 0-0.12-0.03-0.12-0.03-1.16-0.1-2.56-0.31-3.57 0.3zm20.36 0c-1.01-0.61-2.41-0.4-3.57-0.24 0 0-0.06 0-0.12 0.03v0.15c0.27 0.06 0.49 0.3 0.55 0.64q0 0.08 0 0.15c0 0.15-0.03 0.25-0.09 0.37 0.24-0.06 0.51-0.09 0.76 0.15 0.33 0.37 0.49 0.97 0.33 1.64-0.09 0.31-0.27 0.58-0.51 0.71-0.34 0.15-0.71 0.06-0.98-0.13 0.06 0.49 0.58 0.8 0.76 0.89 0.46 0.24 1.19 0.27 1.77 0.09 0.36-0.12 0.82-0.52 0.94-0.92-0.24 0.13-0.54 0.28-0.85 0.19q-0.46-0.18-0.64-0.86c-0.09-0.7 0.09-1.31 0.46-1.58 0.21-0.12 0.42-0.18 0.67-0.12q-0.08-0.18-0.06-0.37c0-0.06 0-0.15 0.03-0.21 0.12-0.34 0.3-0.49 0.55-0.58zm-12.16 3.63c-0.58-0.31-0.61-1.16-0.49-1.71 0.06-0.34 0.25-0.58 0.4-0.67 0.21-0.15 0.49-0.12 0.67-0.09q-0.09-0.19-0.09-0.43c0-0.15 0.03-0.3 0.15-0.42 0.09-0.1 0.18-0.22 0.33-0.28q-0.09-0.17-0.33-0.3c-0.4-0.16-0.92-0.25-1.43-0.25-0.52 0-1.04 0.09-1.43 0.25-0.16 0.06-0.28 0.18-0.34 0.3q0.21 0.09 0.34 0.28 0.14 0.19 0.15 0.42 0 0.21-0.09 0.43c0.21-0.03 0.45-0.06 0.67 0.09 0.15 0.12 0.33 0.33 0.39 0.67 0.09 0.58 0.06 1.4-0.49 1.71-0.36 0.18-0.73 0.03-1-0.13 0.03 0.25 0.27 0.58 0.46 0.7 0.42 0.25 0.91 0.37 1.37 0.37 0.45 0 0.94-0.12 1.37-0.37 0.18-0.12 0.42-0.45 0.46-0.7-0.34 0.13-0.71 0.28-1.07 0.13zm5.57 0c-0.57-0.31-0.6-1.16-0.48-1.71 0.06-0.34 0.24-0.58 0.39-0.67 0.22-0.15 0.49-0.12 0.67-0.09q-0.09-0.19-0.09-0.43c0-0.15 0.03-0.3 0.15-0.42 0.1-0.1 0.19-0.22 0.34-0.28q-0.1-0.17-0.34-0.3c-0.39-0.16-0.91-0.25-1.43-0.25-0.52 0-1.03 0.09-1.43 0.25-0.15 0.06-0.27 0.18-0.33 0.3q0.21 0.09 0.33 0.28 0.15 0.19 0.15 0.42 0 0.21-0.09 0.43c0.21-0.03 0.46-0.06 0.67 0.09 0.15 0.12 0.34 0.33 0.4 0.67 0.09 0.58 0.06 1.4-0.49 1.71-0.37 0.18-0.73 0.03-1-0.13 0.03 0.25 0.27 0.58 0.45 0.7q0.64 0.37 1.37 0.37c0.46 0 0.95-0.12 1.37-0.37 0.19-0.12 0.43-0.45 0.46-0.7-0.33 0.13-0.7 0.31-1.07 0.13z"/>
	<path class="s3" d="m-35.66 66.24c0.73 0.39 1.76 0.7 2.95 0.7 0.91 0 1.77-0.19 1.77-1.04 0-1.98-5.06-0.73-5.06-4.63 0-2.59 2.53-3.29 4.69-3.29 1.04 0 2.04 0.15 2.77 0.4l-0.18 2.22c-0.73-0.34-1.55-0.49-2.37-0.49-0.74 0-1.92 0.06-1.92 1.01 0 1.73 5.08 0.58 5.08 4.45 0 2.77-2.31 3.53-4.72 3.53-1 0-2.25-0.15-3.2-0.46z"/>
	<path class="s3" d="m-27.13 60.87h1.61v-1.79l2.71-0.86v2.65h1.95v1.95h-1.95v2.96c0 0.97 0.25 1.46 1.1 1.46 0.27 0 0.58-0.06 0.85-0.09l0.09 1.8c-0.51 0.06-1.03 0.15-1.73 0.15-2.47 0-3.08-1.1-3.08-2.99v-3.26h-1.58v-1.98"/>
	<path class="s3" d="m-14.37 68.86q-0.05-0.65-0.06-1.25h-0.03c-0.64 1-1.4 1.43-2.53 1.43-1.58 0-2.98-0.79-2.98-2.53 0-2.44 2.65-2.74 4.14-2.74 0.46 0 0.94 0.06 1.31 0.12-0.03-1.1-0.82-1.4-1.83-1.4-0.88 0-1.77 0.18-2.53 0.61l-0.06-1.89c0.98-0.4 2.01-0.58 3.2-0.58 2.04 0 3.81 0.88 3.81 3.32v2.99c0 0.64 0.03 1.25 0.15 1.89h-2.59zm-1.89-1.65c1.04 0 1.71-0.94 1.71-1.89q-0.56-0.04-1.16-0.03c-0.94 0-1.67 0.28-1.67 1.07-0.04 0.52 0.48 0.85 1.12 0.85z"/>
	<path class="s3" d="m-10.93 60.87h1.62v-1.79l2.74-0.86v2.65h1.92v1.95h-1.92v2.96c0 0.97 0.21 1.46 1.1 1.46 0.27 0 0.58-0.06 0.85-0.09l0.09 1.8c-0.52 0.06-1.03 0.15-1.73 0.15-2.47 0-3.08-1.1-3.08-2.99v-3.26h-1.59z"/>
	<path class="s3" d="m-0.96 65.69c0.15 1.09 1 1.52 2.34 1.52 0.77 0 1.62-0.18 2.44-0.61v1.95c-0.88 0.34-1.92 0.52-2.92 0.52-2.65 0-4.66-1.55-4.66-4.2 0-2.66 1.79-4.18 4.29-4.18 2.96 0 4.05 2.1 4.05 4.48v0.52zm3.02-1.59c0-0.91-0.43-1.67-1.52-1.67-1.01 0-1.5 0.76-1.53 1.67z"/>
	<path class="s3" d="m6.02 60.87h2.52v1.47h0.03c0.55-1.16 1.65-1.68 2.93-1.68 2.19 0 3.08 1.55 3.08 3.2v5h-2.78v-3.87c0-1.5-0.51-2.01-1.28-2.01-1.12 0-1.7 0.79-1.7 2.49v3.39h-2.77v-7.99"/>
	<path class="s3" d="m16.1 66.66c0.64 0.28 1.61 0.55 2.59 0.55 0.58 0 1.13-0.09 1.13-0.64 0-1.34-3.93-0.39-3.93-3.29 0-1.83 1.82-2.59 3.41-2.59 0.94 0 1.92 0.12 2.8 0.46l-0.21 1.92c-0.58-0.37-1.46-0.55-2.16-0.55-0.61 0-1.28 0.12-1.28 0.55 0 1.25 4.11 0.27 4.11 3.32 0 2.13-1.92 2.68-3.75 2.68-1.25 0-2.1-0.12-2.89-0.4z"/>
	<path class="s3" d="m27.95 60.87h2.96l1.64 5.7h0.03l1.68-5.7h2.77l-2.99 7.99h-3.13z"/>
	<path class="s3" d="m40.44 65.69c0.16 1.09 1.01 1.52 2.35 1.52 0.76 0 1.61-0.18 2.44-0.61v1.95c-0.89 0.34-1.92 0.52-2.93 0.52-2.65 0-4.66-1.55-4.66-4.2 0-2.66 1.8-4.18 4.3-4.18 2.95 0 4.05 2.1 4.05 4.48v0.52zm3.05-1.59c0-0.91-0.43-1.67-1.53-1.67-1 0-1.46 0.76-1.52 1.67z"/>
	<path class="s3" d="m55.92 67.94c0 3.29-1.58 4.36-4.81 4.36-1.34 0-2.41-0.27-3.08-0.49l0.15-2.19c0.82 0.43 1.56 0.67 2.71 0.67 1.59 0 2.44-0.76 2.44-2.32v-0.42h-0.03c-0.67 0.94-1.58 1.37-2.68 1.37-2.19 0-3.57-1.65-3.57-4.02 0-2.38 1.13-4.18 3.63-4.18 1.19 0 2.13 0.64 2.71 1.65h0.03v-1.43h2.5zm-4.45-1.19c0.98 0 1.77-0.83 1.77-2.04 0-0.89-0.52-1.89-1.77-1.89-1.03 0-1.55 0.91-1.55 2.01-0.03 1.22 0.7 1.92 1.55 1.92z"/>
	<path class="s3" d="m56.99 60.87h2.95l1.68 5.7h0.03l1.67-5.7h2.75l-2.96 7.99h-3.17z"/>
	<path class="s3" d="m69.48 65.69c0.15 1.09 1 1.52 2.38 1.52 0.76 0 1.61-0.18 2.43-0.61v1.95c-0.88 0.34-1.89 0.52-2.92 0.52-2.65 0-4.66-1.55-4.66-4.2 0-2.66 1.79-4.18 4.29-4.18 2.96 0 4.05 2.1 4.05 4.48v0.52zm3.08-1.59c0-0.91-0.43-1.67-1.55-1.67-1.01 0-1.46 0.76-1.56 1.67z"/>
	<path class="s3" d="m76.33 66.66c0.64 0.28 1.59 0.55 2.59 0.55 0.58 0 1.13-0.09 1.13-0.64 0-1.34-3.93-0.39-3.93-3.29 0-1.83 1.8-2.59 3.41-2.59 0.95 0 1.92 0.12 2.81 0.46l-0.22 1.92c-0.58-0.37-1.46-0.55-2.13-0.55-0.61 0-1.28 0.12-1.28 0.55 0 1.25 4.11 0.27 4.11 3.32 0 2.13-1.92 2.68-3.71 2.68-1.25 0-2.08-0.12-2.9-0.4z"/>
	<path class="s3" d="m86.57 65.69c0.15 1.09 1.01 1.52 2.35 1.52 0.76 0 1.61-0.18 2.44-0.61v1.95c-0.89 0.34-1.89 0.52-2.93 0.52-2.62 0-4.66-1.55-4.66-4.2 0-2.66 1.8-4.18 4.3-4.18 2.98 0 4.05 2.1 4.05 4.48v0.52zm3.04-1.59c0-0.91-0.42-1.67-1.52-1.67-1.01 0-1.49 0.76-1.55 1.67z"/>
	<path class="s3" d="m93.55 60.87h2.53v1.47h0.03c0.55-1.16 1.64-1.68 2.92-1.68 2.2 0 3.05 1.55 3.05 3.2v5h-2.77v-3.87c0-1.5-0.52-2.01-1.28-2.01-1.16 0-1.71 0.79-1.71 2.49v3.39h-2.77z"/>
</svg>