<?xml version="1.0" encoding="UTF-8"?><svg id="Layer_1" xmlns="http://www.w3.org/2000/svg" viewBox="0 0 312.59 273.05"><defs><style>.cls-1{fill:#fff;}</style></defs><path class="cls-1" d="m188.02,175.63c-1.34-1.77-3.7-3.64-6.72-4.56-3.01-.94-6.6-1.1-10.26.12-1.82.61-3.64,1.62-5.23,3.13-1.57,1.51-2.92,3.69-3.22,6.24-.13,1.26-.03,2.54.32,3.73.37,1.19.95,2.25,1.64,3.15,1.42,1.77,3.19,2.91,4.96,3.6,3.57,1.4,7.11,1.16,9.95.21,2.85-.97,5-2.79,6.02-4.64,1.06-1.85.99-3.47.77-4.08-.13-.36-.49-.54-.87-.56,0,0,0,0,0,0,1.21,0,2.41-.14,3.29-.64.89-.48,1.38-1.35,1.11-2.31-.05-.08-.39-1.59-1.76-3.37Z"/><path class="cls-1" d="m61.23,212.75c2.28-1.32,2.66-4.91.86-8.04-1.8-3.12-5.11-4.59-7.39-3.28-2.28,1.31-2.66,4.91-.86,8.04,1.8,3.12,5.11,4.59,7.39,3.28Z"/><path class="cls-1" d="m40.15,183.87c-2.3,1.02-2.92,4.65-1.39,8.11,1.53,3.46,4.64,5.44,6.94,4.42,2.3-1.02,2.92-4.65,1.39-8.11-1.53-3.46-4.64-5.44-6.94-4.42Z"/><path class="cls-1" d="m310.84,149.46c-.47-1.69-.99-3.32-1.58-4.9l-2.07-5.81c-.63-1.96-1.5-3.81-2.33-5.69l-2.48-5.62c-7.02-14.79-16.17-28.23-25.72-41.06-8.23-11.02-16.69-21.73-24.96-32.45-5.86-7.5-11.41-15.13-16.77-22.86l-3.84-5.89-1.92-2.94-1.78-3.01-3.55-6.02-4.61-8.8c-.89-1.76-2.12-2.76-3.16-3.38-.95-.55-2.42-1.05-3.97-1.02-1.41.01-2.8.43-3.76,1.03-.17.11-.32.24-.46.39l-1.3,1.39-.75.81-.38.4c-.12.14-.26.24-.35.5l-1.79,4.01-.45,1-.39.91-.44,1.04c-.59,1.38-1.14,2.8-1.69,4.22-1.09,2.84-2.08,5.75-2.98,8.7-1.76,5.92-3.08,12.12-3.46,18.51-.21,3.19-.18,6.44.14,9.64.31,3.19.87,6.29,1.51,9.28,1.29,5.99,2.9,11.61,3.91,17.07.51,2.73.86,5.4.97,8.03.11,2.64,0,5.37-.22,8.19-.03.45-.07.91-.11,1.37-1.84-.39-3.59-1.12-5.37-1.74-2.45-.86-4.95-1.6-7.47-2.21-5.51-1.33-11.02-1.88-16.65-2.12-.04,0-.08,0-.12,0,.04-4.16-2.54-9-4.73-11.87-3.26-4.28-7.69-7.76-11.97-10.97-4.42-3.31-9.09-6.29-14.13-8.55-6.17-2.77-12.88-4.5-19.56-5.26-6.66-.73-13.12-.59-19.32-.58-6.21.04-12.13-.17-18.13-.94-10.26-1.27-20.31-4.07-29.86-7.97-7.71-3.05-15.37-7.7-24.79-10.37-4.68-1.31-9.98-1.99-15.29-1.06l-1.98.39c-.81.21-1.59.46-2.33.77-.74.31-1.46.66-2.15,1.08-.35.21-.68.42-1.04.67-.46.3-.87.66-1.28,1.01-1.61,1.45-2.94,3.22-3.52,5.22l-.22.75-.12.76C0,44,.02,44.52,0,45.03c.03.51.06,1.03.17,1.53.15.49.23,1.01.4,1.49.45,1.11,1.04,2.17,1.86,3.08.74.83,1.62,1.57,2.6,2.16.48.31,1,.58,1.51.83l.39.18.27.12.51.22c.66.27,1.27.5,1.81.69l1.46.62,2.93,1.22c.5.18.97.43,1.43.69l1.41.75c.94.51,1.89.98,2.82,1.52l2.71,1.78c1.84,1.11,3.51,2.57,5.23,3.9,6.79,5.57,12.77,12.43,18.77,19.42,5.99,7.01,11.97,14.31,18.76,21.14,1.78,1.71,3.56,3.43,5.43,5.06l2.89,2.39,1.45,1.19,1.54,1.1c4.13,3.07,8.14,5.48,12.17,8.1,2.97,1.9,5.8,4.05,8.79,5.98.66.43,1.35.85,2.05,1.23-.12.15-.25.29-.37.44-3.67,4.45-6.88,9.22-10.26,13.8,0,0-1.01,1.36-1.03,1.38l-.1.09c-.13.13-.39.28-.58.42-.85.58-1.91,1.18-3.04,1.73-2.26,1.12-4.76,2.12-7.29,3.05-5.09,1.86-10.4,3.46-15.73,5.01-5.45,1.57-10.88,3.32-16.4,4.75-2.04.52-4.15.74-6.2,1.14-.62.12-1.26.25-1.83.51-5.08.29-9.08,2.62-11.92,5.1-17.28,15.1,1.66,36.76,9.75,46.01,11.61,13.28,23.05,20.23,32.58,20.23,3.52,0,6.77-.96,9.68-2.89.67,0,1.35-.03,1.56-.04,2.86-.09,5.8.41,8.66.57.26.01,1.79.17,3.78.37,3.74,6.37,8.26,12.35,13.86,17.19,5.47,4.73,12.15,7.57,18.56,10.76,4.7,2.33,9.45,4.54,14.22,6.73,2.33,1.07,4.67,2.12,6.99,3.22,2.02.96,3.29,1.32,5.5,1.81,1.5.34,6.85.79,7.19-2.87.39-4.32-7.32-8-10.91-9.46-10.28-4.19-21.1-8.71-30.48-14.69-4.61-2.94-8.18-6.63-11.51-10.93-.19-.25-.4-.5-.6-.75.26.01-.17-.02-1-.08,3.03.11,4.62.03,5.21-.02,6.67-.39,13-3.43,17.97-7.81,2.53-2.24,4.65-4.83,6.46-7.68,1.53-2.41,3.91-5.83,2.53-8.8-.55-1.18-2.14-2.1-4.8-2.55-2.82-.49-4.65,3.72-5.81,5.59-1.6,2.57-3.93,4.72-6.43,6.42-9.35,6.39-19.34,4.29-29.86,3.36l-3.62-.37c2.73-9.73-2.49-23.02-15.17-37.52-5.86-6.7-10.78-11.46-15.33-14.78,4.83-1.27,9.65-2.61,14.47-4.05,3.66-1.1,7.42-1.97,11.08-3.31,2.87-1.06,5.72-2.25,8.6-3.69,1.45-.75,2.88-1.52,4.38-2.53.37-.24.76-.54,1.14-.81.19-.15.37-.26.58-.45l.69-.6c.26-.26.58-.43.77-.74l.59-.82.64-.89c4.97-6.98,10.07-13.79,15.7-20.09,6.46-7.19,13.58-13.7,21.35-18.99,1.23-.82,2.45-1.66,3.72-2.4.63-.38,1.25-.78,1.89-1.14l1.92-1.06c8.04-4.38,16.81-7.1,25.79-7.55,9.33-.47,18.73,1.53,27.64,5.02.67.23,1.33.51,2.02.69,1.18.29,1.97.37,2.69.07-.16,2.13-.29,4.3-.3,6.54,0,1.63.04,3.28.19,4.95l.1,1.18s.01.1.02.15l.18,1.19.38,2.42c.01.07.02.13.04.2l.58,2.37.29,1.14c.01.06.03.12.05.17l.37,1.12.78,2.31c.02.06.04.12.07.17l.95,2.23.47,1.08c.02.05.05.1.07.15l.54,1.04,1.13,2.14c.03.05.06.1.09.15l1.28,2.05.63.99s.06.09.09.13l.69.94,1.43,1.94s.07.09.1.13l1.56,1.84.76.89s.07.08.11.12l.82.84,1.75,1.78c3.55,3.38,7.43,6.5,11.87,8.8,1.83.88,3.78,1.81,5.71,2.08.66.11,1.27.19,1.84.18.58-.02,1.1-.09,1.56-.2.93-.21,1.62-.58,2.07-1.07.9-.98.8-2.43-.2-4.06-.38-.62-.79-1.21-1.25-1.75-.45-.57-.92-1.14-1.47-1.64-.54-.5-1.14-.94-1.79-1.44-.65-.48-1.4-.85-2.21-1.29-7.63-3.9-14.03-10.47-17.79-18.23-1.88-3.88-3.13-8.03-3.53-12.27-.43-4.3-.13-8.85.32-13.59.36-3.84.89-7.81,1.16-11.96.12-2.08.17-4.2.1-6.36-.11-2.15-.3-4.3-.64-6.36-1.03-6.53-2.84-12.55-4.23-18.34-.7-2.9-1.3-5.74-1.68-8.54-.38-2.79-.5-5.56-.41-8.37.29-7.29,2.13-14.65,4.72-21.88.64-1.81,1.34-3.62,2.07-5.42l1.32-3.19c.12-.21.14-.57.43-.61.31-.03.37.32.51.53l1.77,3.37c5.21,9.21,10.88,18.13,17.01,26.62,6.1,8.5,12.44,16.8,18.83,24.93,4.01,5.16,8.06,10.26,11.99,15.4,3.14,4,6.09,8.08,9.12,12.13,2.87,4.13,5.87,8.19,8.52,12.43l2.05,3.15,1.02,1.58.94,1.61,3.78,6.45c1.2,2.17,2.28,4.4,3.43,6.6.56,1.11,1.15,2.2,1.67,3.32l1.47,3.4,1.53,3.53.76,1.76c.24.59.43,1.2.64,1.8l2.51,7.23c1.57,4.85,2.64,9.47,2.09,13.44l-.19,1.31c-.02.11-.04.22-.07.32-.12.43-.26.85-.38,1.27-.07.24-.12.48-.21.72l-.31.69c-.22.45-.37.93-.63,1.37-.97,1.79-2.29,3.43-3.8,4.94-3.15,2.91-7.17,5.18-11.51,6.3-1.27.39-2.59.57-3.86.92-2.59.53-4.08.73-5.15,1.52-.75.51-1.3,1.33-1.93,2.59-.56,1.12-.17,2.48.88,3.16,2.06,1.32,4.51,2.28,7.25,2.53,3.55.33,7.62-.39,11.59-2.72.57-.34,1.14-.66,1.72-.98.56-.36,1.13-.71,1.71-1.06,1.17-.65,2.27-1.47,3.42-2.23.59-.36,1.1-.84,1.65-1.26.54-.45,1.1-.85,1.61-1.34.99-1.01,2.06-1.94,2.88-3.12,2.83-3.61,4.86-8.07,5.56-12.77.48-3.06.68-8.12-1.44-15.33Zm-249.91,42.17c9.98,11.42,17.18,25.45,10.75,31.07-6.43,5.62-19.38-3.39-29.36-14.8-17.62-20.16-15.58-26.85-10.75-31.07,3.51-3.07,7.04-3.33,11.82-.86,4.77,2.46,10.34,7.44,17.54,15.67Zm91.49-98.71c-3.96,1.08-7.75,2.58-11.45,4.26-6.29,2.98-12.24,6.55-17.68,10.71-6.5,4.99-12.37,10.6-17.8,16.53-.69-1.11-1.67-2.11-3.05-2.96-3.21-1.98-6.42-4.03-9.6-6.1l-4.76-3.13-2.34-1.58-2.18-1.61c-5.82-4.26-11.12-9.41-16.18-14.92-4.1-4.44-7.79-9.38-11.85-14.08-6.38-7.39-13.11-14.8-20.95-21.38l-3.18-2.49-1.6-1.24-1.7-1.13-3.4-2.26-3.6-1.98-1.8-.98c-.61-.32-1.26-.56-1.89-.84l-3.8-1.62c-.66-.29-1.22-.47-1.72-.67l-.69-.29-.13-.06c-.14-.07-.28-.17-.36-.32-.12-.25,0-.54.19-.72.02-.02.05-.04.08-.07.05-.04,0,0,.15-.11.24-.16.5-.31.77-.44.27-.13.55-.25.83-.34.14-.05.27-.07.4-.12l.58-.11,1.21-.24,1.23-.12c.41-.06.83-.07,1.25-.06.42,0,.84-.03,1.26,0,1.7.08,3.43.33,5.18.73,3.51.83,7.07,2.21,10.67,3.83,3.61,1.61,7.24,3.45,11.13,5.17,3.88,1.72,7.85,3.26,11.88,4.59,5.09,1.69,10.29,3.04,15.55,4.06,8.22,1.61,16.69,2.39,24.99,2.43,8.22.07,16.08-.17,23.42,1,15.09,2.43,29.11,11.53,37.73,24.15.58.92,1.25,1.81,1.87,2.7-2.93.42-5.84,1.07-8.69,1.82Z"/></svg>