<svg id="Group_328" data-name="Group 328" xmlns="http://www.w3.org/2000/svg" xmlns:xlink="http://www.w3.org/1999/xlink" width="196.459" height="57.42" viewBox="0 0 196.459 57.42">
  <defs>
    <clipPath id="clip-path">
      <rect id="Rectangle_2" data-name="Rectangle 2" width="196.459" height="57.42" fill="none"></rect>
    </clipPath>
  </defs>
  <g id="Group_1" data-name="Group 1" clip-path="url(#clip-path)">
    <path id="Path_1" data-name="Path 1" d="M8.784,142.024a.158.158,0,0,1-.154-.135A2.24,2.24,0,0,0,7.6,140.331a4.015,4.015,0,0,0-2.252-.6,4.259,4.259,0,0,0-1.7.315,2.7,2.7,0,0,0-1.133.868,2.068,2.068,0,0,0-.405,1.255,1.756,1.756,0,0,0,.283,1.008,2.379,2.379,0,0,0,.728.7,4.924,4.924,0,0,0,.932.452q.488.176.9.283l1.492.4a13.247,13.247,0,0,1,1.28.416,6.087,6.087,0,0,1,1.355.721,3.747,3.747,0,0,1,1.072,1.165,3.35,3.35,0,0,1,.423,1.743,3.884,3.884,0,0,1-.62,2.151,4.275,4.275,0,0,1-1.808,1.528,6.639,6.639,0,0,1-2.879.567,6.709,6.709,0,0,1-2.729-.509,4.328,4.328,0,0,1-1.807-1.42A3.991,3.991,0,0,1,0,149.429a.161.161,0,0,1,.16-.176h1.52a.159.159,0,0,1,.155.14,2.221,2.221,0,0,0,.547,1.233,2.951,2.951,0,0,0,1.248.8,4.953,4.953,0,0,0,1.632.262,4.771,4.771,0,0,0,1.829-.334,3.1,3.1,0,0,0,1.284-.932,2.2,2.2,0,0,0,.473-1.4,1.723,1.723,0,0,0-.409-1.191,3,3,0,0,0-1.076-.746,11.338,11.338,0,0,0-1.442-.5l-1.808-.516a6.731,6.731,0,0,1-2.725-1.413,3.1,3.1,0,0,1-1-2.4,3.565,3.565,0,0,1,.67-2.155,4.437,4.437,0,0,1,1.807-1.434,6.112,6.112,0,0,1,2.542-.513,6,6,0,0,1,2.524.505,4.427,4.427,0,0,1,1.754,1.381,3.428,3.428,0,0,1,.676,1.816.161.161,0,0,1-.161.17Z" transform="translate(0 -95.878)" fill="#fff"></path>
    <path id="Path_2" data-name="Path 2" d="M44.108,153.337v-14.37a.159.159,0,0,1,.159-.159h1.461a.159.159,0,0,1,.159.159v7.128h.172l6.551-7.234a.159.159,0,0,1,.118-.052h1.889a.159.159,0,0,1,.116.267L48.9,145.336a.159.159,0,0,0-.01.2l5.891,7.7a.159.159,0,0,1-.126.255H52.908a.159.159,0,0,1-.127-.064l-4.942-6.608a.159.159,0,0,0-.246-.01l-1.666,1.875a.158.158,0,0,0-.04.105v4.543a.159.159,0,0,1-.159.159H44.267a.159.159,0,0,1-.159-.159" transform="translate(-30.611 -96.334)" fill="#fff"></path>
    <path id="Path_3" data-name="Path 3" d="M88.916,138.966v14.37a.159.159,0,0,1-.159.159H87.3a.159.159,0,0,1-.159-.159v-14.37a.159.159,0,0,1,.159-.159h1.461a.159.159,0,0,1,.159.159" transform="translate(-60.474 -96.333)" fill="#fff"></path>
    <path id="Path_4" data-name="Path 4" d="M104.574,153.337v-14.37a.159.159,0,0,1,.159-.159h8.547a.159.159,0,0,1,.159.159v1.26a.159.159,0,0,1-.159.159h-6.768a.159.159,0,0,0-.159.159v4.645a.159.159,0,0,0,.159.159h6.309a.159.159,0,0,1,.159.159v1.26a.159.159,0,0,1-.159.159h-6.309a.159.159,0,0,0-.159.159v4.674a.159.159,0,0,0,.159.159h6.883a.159.159,0,0,1,.159.159v1.26a.159.159,0,0,1-.159.159h-8.661a.159.159,0,0,1-.159-.159" transform="translate(-72.575 -96.334)" fill="#fff"></path>
    <path id="Path_5" data-name="Path 5" d="M155.69,138.966v14.37a.159.159,0,0,1-.159.159h-1.479a.158.158,0,0,1-.13-.068l-7.956-11.464h-.144v11.373a.159.159,0,0,1-.159.159H144.2a.159.159,0,0,1-.159-.159v-14.37a.159.159,0,0,1,.159-.159h1.479a.158.158,0,0,1,.13.068l7.985,11.493h.143v-11.4a.159.159,0,0,1,.159-.159h1.432a.159.159,0,0,1,.159.159" transform="translate(-99.967 -96.333)" fill="#fff"></path>
    <path id="Path_6" data-name="Path 6" d="M235.51,153.336v-14.37a.159.159,0,0,1,.159-.158h8.489a.159.159,0,0,1,.159.158v1.26a.159.159,0,0,1-.159.159h-6.711a.159.159,0,0,0-.159.159v4.645a.159.159,0,0,0,.159.159H243.5a.159.159,0,0,1,.159.158v1.26a.159.159,0,0,1-.159.159h-6.051a.159.159,0,0,0-.159.159v6.252a.159.159,0,0,1-.159.159h-1.461a.159.159,0,0,1-.159-.159" transform="translate(-163.446 -96.333)" fill="#fff"></path>
    <path id="Path_7" data-name="Path 7" d="M274.228,153.335v-14.37a.159.159,0,0,1,.158-.159h4.8a6.02,6.02,0,0,1,2.826.584,3.773,3.773,0,0,1,1.635,1.6,4.937,4.937,0,0,1,.531,2.317,4.849,4.849,0,0,1-.531,2.3,3.717,3.717,0,0,1-1.628,1.574,6.062,6.062,0,0,1-2.8.57h-3.857a.159.159,0,0,1-.159-.159v-1.289a.159.159,0,0,1,.159-.159h3.8a4.434,4.434,0,0,0,1.9-.344,2.192,2.192,0,0,0,1.047-.979,3.28,3.28,0,0,0,.326-1.517,3.405,3.405,0,0,0-.33-1.542,2.267,2.267,0,0,0-1.054-1.022,4.3,4.3,0,0,0-1.915-.362h-2.968a.159.159,0,0,0-.159.159v12.792a.159.159,0,0,1-.159.159h-1.461a.159.159,0,0,1-.158-.159m6.959-6.357,3.441,6.281a.159.159,0,0,1-.139.235h-1.7a.159.159,0,0,1-.14-.084l-3.386-6.281a.159.159,0,0,1,.14-.234h1.648a.159.159,0,0,1,.139.083" transform="translate(-190.316 -96.332)" fill="#fff"></path>
    <path id="Path_8" data-name="Path 8" d="M318.193,138.965v14.37a.159.159,0,0,1-.159.159h-1.461a.159.159,0,0,1-.159-.159v-14.37a.159.159,0,0,1,.159-.159h1.461a.159.159,0,0,1,.159.159" transform="translate(-219.594 -96.332)" fill="#fff"></path>
    <path id="Path_9" data-name="Path 9" d="M331.226,140.225v-1.26a.159.159,0,0,1,.159-.159h10.7a.159.159,0,0,1,.159.159v1.26a.159.159,0,0,1-.159.159h-4.3a.159.159,0,0,0-.159.158v12.793a.159.159,0,0,1-.159.159H336a.159.159,0,0,1-.159-.159V140.543a.159.159,0,0,0-.159-.158h-4.3a.159.159,0,0,1-.159-.159" transform="translate(-229.873 -96.332)" fill="#fff"></path>
    <path id="Path_10" data-name="Path 10" d="M378,138.965v14.37a.159.159,0,0,1-.159.159h-1.461a.159.159,0,0,1-.159-.159v-14.37a.159.159,0,0,1,.159-.159h1.461a.159.159,0,0,1,.159.159" transform="translate(-261.103 -96.332)" fill="#fff"></path>
    <path id="Path_11" data-name="Path 11" d="M398.2,153.494h-4.374a.159.159,0,0,1-.158-.159v-14.37a.159.159,0,0,1,.158-.159H398.4a7.192,7.192,0,0,1,3.658.879,5.8,5.8,0,0,1,2.331,2.517,9.912,9.912,0,0,1-.007,7.867A5.8,5.8,0,0,1,402,152.608a7.6,7.6,0,0,1-3.8.886m-2.754-1.737a.159.159,0,0,0,.159.159h2.48a5.891,5.891,0,0,0,3.019-.7,4.33,4.33,0,0,0,1.786-2,8.4,8.4,0,0,0,.007-6.157,4.31,4.31,0,0,0-1.736-1.979,5.51,5.51,0,0,0-2.876-.692H395.6a.159.159,0,0,0-.159.159Z" transform="translate(-273.205 -96.332)" fill="#fff"></path>
    <path id="Path_12" data-name="Path 12" d="M447.87,142.023a.158.158,0,0,1-.154-.135,2.24,2.24,0,0,0-1.028-1.558,4.015,4.015,0,0,0-2.252-.6,4.258,4.258,0,0,0-1.7.315,2.7,2.7,0,0,0-1.133.868,2.067,2.067,0,0,0-.405,1.255,1.756,1.756,0,0,0,.283,1.008,2.378,2.378,0,0,0,.728.7,4.923,4.923,0,0,0,.932.452q.488.176.9.283l1.492.4a13.252,13.252,0,0,1,1.28.416,6.088,6.088,0,0,1,1.355.721,3.748,3.748,0,0,1,1.072,1.165,3.35,3.35,0,0,1,.423,1.743,3.884,3.884,0,0,1-.62,2.151,4.275,4.275,0,0,1-1.807,1.528,6.639,6.639,0,0,1-2.879.567,6.709,6.709,0,0,1-2.729-.509,4.329,4.329,0,0,1-1.807-1.42,3.991,3.991,0,0,1-.726-1.94.161.161,0,0,1,.16-.176h1.52a.159.159,0,0,1,.155.14,2.22,2.22,0,0,0,.547,1.233,2.951,2.951,0,0,0,1.248.8,4.953,4.953,0,0,0,1.632.262,4.771,4.771,0,0,0,1.829-.334,3.1,3.1,0,0,0,1.284-.932,2.2,2.2,0,0,0,.473-1.4,1.723,1.723,0,0,0-.409-1.191,3,3,0,0,0-1.076-.746,11.341,11.341,0,0,0-1.441-.5l-1.808-.516a6.731,6.731,0,0,1-2.725-1.413,3.1,3.1,0,0,1-1-2.4,3.566,3.566,0,0,1,.67-2.155,4.438,4.438,0,0,1,1.807-1.434,6.113,6.113,0,0,1,2.543-.513,6,6,0,0,1,2.524.505,4.428,4.428,0,0,1,1.754,1.381,3.429,3.429,0,0,1,.676,1.816.161.161,0,0,1-.161.17Z" transform="translate(-304.729 -95.877)" fill="#fff"></path>
    <path id="Path_13" data-name="Path 13" d="M483.193,153.336v-14.37a.159.159,0,0,1,.159-.158h4.8a5.724,5.724,0,0,1,2.829.62,3.932,3.932,0,0,1,1.632,1.675,5.158,5.158,0,0,1,.531,2.352,5.233,5.233,0,0,1-.527,2.359A3.946,3.946,0,0,1,491,147.5a5.614,5.614,0,0,1-2.811.627h-3.4a.159.159,0,0,1-.159-.159v-1.26a.159.159,0,0,1,.159-.159h3.341a3.825,3.825,0,0,0,1.9-.409,2.453,2.453,0,0,0,1.043-1.108,3.988,3.988,0,0,0,0-3.159,2.391,2.391,0,0,0-1.051-1.094,3.99,3.99,0,0,0-1.922-.4H485.13a.159.159,0,0,0-.159.159v12.792a.159.159,0,0,1-.159.159h-1.461a.159.159,0,0,1-.159-.159" transform="translate(-335.339 -96.333)" fill="#fff"></path>
    <path id="Path_14" data-name="Path 14" d="M518.006,153.494h-1.525a.159.159,0,0,1-.149-.214l5.277-14.37a.159.159,0,0,1,.149-.1h1.614a.159.159,0,0,1,.149.1l5.276,14.37a.159.159,0,0,1-.149.214h-1.525a.159.159,0,0,1-.15-.106l-4.352-12.258h-.115l-4.352,12.258a.159.159,0,0,1-.15.106m.959-5.737h7.2a.159.159,0,0,1,.159.159v1.26a.159.159,0,0,1-.159.158h-7.2a.159.159,0,0,1-.159-.158v-1.26a.159.159,0,0,1,.159-.159" transform="translate(-358.331 -96.332)" fill="#fff"></path>
    <path id="Path_15" data-name="Path 15" d="M564.849,153.335v-14.37a.159.159,0,0,1,.159-.159h4.8a6.02,6.02,0,0,1,2.826.584,3.773,3.773,0,0,1,1.635,1.6,4.937,4.937,0,0,1,.531,2.317,4.849,4.849,0,0,1-.531,2.3,3.718,3.718,0,0,1-1.628,1.574,6.062,6.062,0,0,1-2.8.57h-3.857a.159.159,0,0,1-.159-.159v-1.289a.159.159,0,0,1,.159-.159h3.8a4.433,4.433,0,0,0,1.9-.344,2.192,2.192,0,0,0,1.047-.979,3.281,3.281,0,0,0,.326-1.517,3.4,3.4,0,0,0-.33-1.542,2.267,2.267,0,0,0-1.054-1.022,4.3,4.3,0,0,0-1.915-.362h-2.968a.159.159,0,0,0-.159.159v12.792a.159.159,0,0,1-.159.159h-1.461a.159.159,0,0,1-.159-.159m6.959-6.357,3.441,6.281a.159.159,0,0,1-.139.235h-1.7a.159.159,0,0,1-.14-.084l-3.386-6.281a.159.159,0,0,1,.14-.234h1.648a.159.159,0,0,1,.139.083" transform="translate(-392.009 -96.332)" fill="#fff"></path>
    <path id="Path_16" data-name="Path 16" d="M607.035,153.336v-14.37a.159.159,0,0,1,.159-.158h1.461a.159.159,0,0,1,.158.158v7.128h.172l6.551-7.234a.159.159,0,0,1,.118-.052h1.889a.159.159,0,0,1,.116.267l-5.828,6.262a.158.158,0,0,0-.01.2l5.891,7.7a.159.159,0,0,1-.126.255h-1.751a.159.159,0,0,1-.127-.064l-4.942-6.608a.159.159,0,0,0-.246-.01l-1.666,1.875a.158.158,0,0,0-.04.105v4.543a.159.159,0,0,1-.158.159h-1.461a.159.159,0,0,1-.159-.159" transform="translate(-421.286 -96.333)" fill="#fff"></path>
    <path id="Path_17" data-name="Path 17" d="M153.35,30.593a15.3,15.3,0,1,1,15.3-15.3,15.314,15.314,0,0,1-15.3,15.3m0-26.616A11.319,11.319,0,1,0,164.669,15.3,11.332,11.332,0,0,0,153.35,3.977" transform="translate(-95.81 0.001)" fill="#e43d30"></path>
    <path id="Path_18" data-name="Path 18" d="M65.232,70.653a9.832,9.832,0,1,1,9.832-9.832,9.843,9.843,0,0,1-9.832,9.832m0-16.6A6.772,6.772,0,1,0,72,60.821a6.78,6.78,0,0,0-6.772-6.772" transform="translate(-38.448 -35.387)" fill="#e43d30"></path>
    <path id="Path_19" data-name="Path 19" d="M198.255,131.068a4.8,4.8,0,1,1,4.8-4.8,4.8,4.8,0,0,1-4.8,4.8m0-7.452a2.655,2.655,0,1,0,2.655,2.655,2.658,2.658,0,0,0-2.655-2.655" transform="translate(-134.261 -84.304)" fill="#e43d30"></path>
  </g>
</svg>
